<svg width="24" height="24" viewBox="0 0 24 24" fill="none" xmlns="http://www.w3.org/2000/svg">
<path d="M7.67969 7.67001V6.70001C7.67969 4.45001 9.41729 2.24001 11.5773 2.03001C14.1501 1.77001 16.3197 3.88001 16.3197 6.51001V7.89001" stroke="white" stroke-width="2" stroke-miterlimit="10" stroke-linecap="round" stroke-linejoin="round"/>
<path d="M9.12038 22H14.8804C18.7396 22 19.4308 20.39 19.6324 18.43L20.3524 12.43C20.6116 9.99 19.9396 8 15.8404 8H8.16038C4.06118 8 3.38918 9.99 3.64838 12.43L4.36838 18.43C4.56998 20.39 5.26118 22 9.12038 22Z" stroke="white" stroke-width="2" stroke-miterlimit="10" stroke-linecap="round" stroke-linejoin="round"/>
<path d="M15.3555 12H15.3645" stroke="white" stroke-width="2" stroke-linecap="round" stroke-linejoin="round"/>
<path d="M8.63477 12H8.64375" stroke="white" stroke-width="2" stroke-linecap="round" stroke-linejoin="round"/>
<path d="M18.7199 11C20.8407 11 22.5599 9.20914 22.5599 7C22.5599 4.79086 20.8407 3 18.7199 3C16.5991 3 14.8799 4.79086 14.8799 7C14.8799 9.20914 16.5991 11 18.7199 11Z" fill="#FF3232"/>
</svg>
