<svg width="141" height="34" viewBox="0 0 141 34" fill="none" xmlns="http://www.w3.org/2000/svg">
<g clip-path="url(#clip0_262_624)">
<mask id="mask0_262_624" style="mask-type:luminance" maskUnits="userSpaceOnUse" x="1" y="0" width="140" height="34">
<path d="M140.232 0H1.74414V33.99H140.232V0Z" fill="white"/>
</mask>
<g mask="url(#mask0_262_624)">
<path d="M42.0723 23.8706H51.9837V20.8861H45.595V9.64453H42.0723V23.8706Z" fill="#94979E"/>
<path d="M57.8553 21.8813C56.4422 21.8813 55.7058 20.6476 55.7058 18.7973C55.7058 16.9469 56.4422 15.6934 57.8553 15.6934C59.2684 15.6934 60.0247 16.9469 60.0247 18.7973C60.0247 20.6476 59.2684 21.8813 57.8553 21.8813ZM57.8752 24.1893C61.1591 24.1893 63.3086 21.8614 63.3086 18.7973C63.3086 15.7332 61.1591 13.4053 57.8752 13.4053C54.6112 13.4053 52.4219 15.7332 52.4219 18.7973C52.4219 21.8614 54.6112 24.1893 57.8752 24.1893Z" fill="#94979E"/>
<path d="M68.9933 27.3925C70.5059 27.3925 71.8394 27.0542 72.735 26.2584C73.551 25.5222 74.0883 24.408 74.0883 22.876V13.6838H70.9836V14.778H70.9438C70.3467 13.9225 69.4312 13.3853 68.0778 13.3853C65.5502 13.3853 63.7988 15.4943 63.7988 18.4789C63.7988 21.6025 65.9283 23.3137 68.2171 23.3137C69.4511 23.3137 70.2273 22.8163 70.8243 22.1398H70.9039V23.1545C70.9039 24.3881 70.3268 25.1044 68.9535 25.1044C67.8788 25.1044 67.3414 24.6467 67.1623 24.1096H64.0177C64.3361 26.2385 66.1871 27.3925 68.9933 27.3925ZM68.9734 20.9062C67.7594 20.9062 66.9633 19.9113 66.9633 18.3794C66.9633 16.8274 67.7594 15.8325 68.9734 15.8325C70.3268 15.8325 71.0433 16.9866 71.0433 18.3594C71.0433 19.792 70.3865 20.9062 68.9734 20.9062Z" fill="#94979E"/>
<path d="M80.4725 21.8813C79.0594 21.8813 78.323 20.6476 78.323 18.7973C78.323 16.9469 79.0594 15.6934 80.4725 15.6934C81.8856 15.6934 82.6418 16.9469 82.6418 18.7973C82.6418 20.6476 81.8856 21.8813 80.4725 21.8813ZM80.4924 24.1893C83.7763 24.1893 85.926 21.8614 85.926 18.7973C85.926 15.7332 83.7763 13.4053 80.4924 13.4053C77.2284 13.4053 75.0391 15.7332 75.0391 18.7973C75.0391 21.8614 77.2284 24.1893 80.4924 24.1893Z" fill="#94979E"/>
<path d="M86.873 23.8706H90.1171V13.6836H86.873V23.8706ZM86.873 12.2709H90.1171V9.64453H86.873V12.2709Z" fill="#94979E"/>
<path d="M91.5234 27.2333H94.7675V22.8163H94.8073C95.4442 23.6718 96.3796 24.1892 97.6931 24.1892C100.36 24.1892 102.131 22.0801 102.131 18.7773C102.131 15.7132 100.48 13.3853 97.7728 13.3853C96.3796 13.3853 95.3845 14.0021 94.6879 14.9173H94.6282V13.6838H91.5234V27.2333ZM96.8572 21.6822C95.4641 21.6822 94.668 20.548 94.668 18.8966C94.668 17.2452 95.3845 15.9918 96.7975 15.9918C98.1907 15.9918 98.8475 17.1457 98.8475 18.8966C98.8475 20.6276 98.0912 21.6822 96.8572 21.6822Z" fill="#94979E"/>
<path d="M107.415 24.1892C110.082 24.1892 112.052 23.0351 112.052 20.8067C112.052 18.2002 109.942 17.7427 108.151 17.4442C106.857 17.2054 105.703 17.106 105.703 16.3897C105.703 15.753 106.32 15.4545 107.116 15.4545C108.012 15.4545 108.629 15.7331 108.748 16.6483H111.733C111.574 14.6388 110.022 13.3853 107.136 13.3853C104.728 13.3853 102.738 14.4995 102.738 16.6483C102.738 19.0359 104.628 19.5135 106.4 19.8119C107.753 20.0507 108.987 20.1502 108.987 21.0654C108.987 21.722 108.37 22.0801 107.395 22.0801C106.32 22.0801 105.643 21.5826 105.524 20.5679H102.459C102.558 22.8163 104.429 24.1892 107.415 24.1892Z" fill="#94979E"/>
<path d="M116.458 24.169C117.871 24.169 118.766 23.612 119.503 22.6172H119.563V23.8706H122.667V13.6836H119.423V19.374C119.423 20.5877 118.747 21.4233 117.632 21.4233C116.597 21.4233 116.1 20.8065 116.1 19.6923V13.6836H112.875V20.3688C112.875 22.6371 114.109 24.169 116.458 24.169Z" fill="#94979E"/>
<path d="M124.078 23.8708H127.322V18.1604C127.322 16.9468 127.919 16.0913 128.934 16.0913C129.909 16.0913 130.367 16.7279 130.367 17.8222V23.8708H133.611V18.1604C133.611 16.9468 134.188 16.0913 135.223 16.0913C136.198 16.0913 136.656 16.7279 136.656 17.8222V23.8708H139.9V17.2452C139.9 14.9571 138.746 13.3853 136.437 13.3853C135.124 13.3853 134.029 13.9424 133.233 15.176H133.193C132.676 14.0816 131.661 13.3853 130.327 13.3853C128.854 13.3853 127.879 14.0816 127.242 15.1362H127.183V13.6838H124.078V23.8708Z" fill="#94979E"/>
<path fill-rule="evenodd" clip-rule="evenodd" d="M8.92063 3.22636C7.73423 4.05569 6.6614 5.03622 5.73009 6.14C9.53586 5.78678 14.3709 6.36355 19.9844 9.16949C25.9788 12.1657 30.8059 12.267 34.1652 11.6192C33.8604 10.6967 33.4766 9.80991 33.0221 8.96696C29.1765 9.37244 24.2465 8.83572 18.501 5.9639C14.8526 4.14022 11.6365 3.38898 8.92063 3.22636ZM30.7757 5.77047C27.7388 2.37838 23.3255 0.243652 18.4134 0.243652C16.9709 0.243652 15.5713 0.427784 14.237 0.773796C16.0441 1.26674 17.9639 1.98791 19.9844 2.99789C24.1909 5.10051 27.8226 5.77751 30.7757 5.77047ZM34.8834 14.8578C30.825 15.6589 25.2207 15.4944 18.501 12.1355C12.2188 8.99531 7.21872 9.03486 3.84648 9.78405C3.67241 9.82267 3.50245 9.8633 3.33659 9.90558C2.89507 10.8655 2.54265 11.8749 2.28978 12.9231C2.55986 12.851 2.83894 12.7825 3.12689 12.7185C7.21801 11.8096 12.9984 11.849 19.9844 15.3411C26.2667 18.4813 31.2668 18.4417 34.6391 17.6925C34.7546 17.6669 34.8684 17.6403 34.9804 17.613C34.9927 17.3516 34.9988 17.0886 34.9988 16.8241C34.9988 16.1589 34.9597 15.5027 34.8834 14.8578ZM34.4389 21.1121C30.4198 21.8145 24.9788 21.5449 18.501 18.307C12.2188 15.1669 7.21872 15.2065 3.84648 15.9556C3.09794 16.1219 2.42456 16.3244 1.83055 16.5382C1.82894 16.6332 1.82812 16.7286 1.82812 16.8241C1.82812 25.9813 9.25363 33.4046 18.4134 33.4046C26.0901 33.4046 32.5486 28.1908 34.4389 21.1121Z" fill="#94979E"/>
</g>
</g>
<defs>
<clipPath id="clip0_262_624">
<rect width="140" height="33.99" fill="white" transform="translate(0.976562)"/>
</clipPath>
</defs>
</svg>
