<svg width="142" height="34" viewBox="0 0 142 34" fill="none" xmlns="http://www.w3.org/2000/svg">
<g clip-path="url(#clip0_262_652)">
<mask id="mask0_262_652" style="mask-type:luminance" maskUnits="userSpaceOnUse" x="0" y="0" width="142" height="34">
<path d="M141.759 0H0.792969V33.99H141.759V0Z" fill="white"/>
</mask>
<g mask="url(#mask0_262_652)">
<path d="M43.3125 24.3096H53.2232V21.3251H46.835V10.0835H43.3125V24.3096Z" fill="#94979E"/>
<path d="M59.0951 22.3202C57.6821 22.3202 56.9459 21.0866 56.9459 19.2363C56.9459 17.3858 57.6821 16.1324 59.0951 16.1324C60.5081 16.1324 61.2644 17.3858 61.2644 19.2363C61.2644 21.0866 60.5081 22.3202 59.0951 22.3202ZM59.115 24.6282C62.3987 24.6282 64.548 22.3004 64.548 19.2363C64.548 16.1722 62.3987 13.8442 59.115 13.8442C55.8513 13.8442 53.6621 16.1722 53.6621 19.2363C53.6621 22.3004 55.8513 24.6282 59.115 24.6282Z" fill="#94979E"/>
<path d="M70.2312 27.8314C71.7437 27.8314 73.0771 27.4932 73.9727 26.6973C74.7886 25.9611 75.3259 24.847 75.3259 23.3149V14.1227H72.2214V15.217H72.1815C71.5845 14.3615 70.6691 13.8242 69.3158 13.8242C66.7884 13.8242 65.0371 15.9333 65.0371 18.9177C65.0371 22.0415 67.1665 23.7526 69.4551 23.7526C70.689 23.7526 71.4652 23.2552 72.0621 22.5787H72.1417V23.5934C72.1417 24.8271 71.5647 25.5434 70.1914 25.5434C69.1168 25.5434 68.5795 25.0857 68.4004 24.5485H65.256C65.5744 26.6774 67.4252 27.8314 70.2312 27.8314ZM70.2113 21.3451C68.9974 21.3451 68.2014 20.3503 68.2014 18.8182C68.2014 17.2663 68.9974 16.2715 70.2113 16.2715C71.5646 16.2715 72.2811 17.4256 72.2811 18.7984C72.2811 20.2309 71.6243 21.3451 70.2113 21.3451Z" fill="#94979E"/>
<path d="M81.7104 22.3202C80.2974 22.3202 79.561 21.0866 79.561 19.2363C79.561 17.3858 80.2974 16.1324 81.7104 16.1324C83.1233 16.1324 83.8792 17.3858 83.8792 19.2363C83.8792 21.0866 83.1233 22.3202 81.7104 22.3202ZM81.7303 24.6282C85.0135 24.6282 87.1629 22.3004 87.1629 19.2363C87.1629 16.1722 85.0135 13.8442 81.7303 13.8442C78.4665 13.8442 76.2773 16.1722 76.2773 19.2363C76.2773 22.3004 78.4665 24.6282 81.7303 24.6282Z" fill="#94979E"/>
<path d="M88.1094 24.3096H91.3532V14.1225H88.1094V24.3096ZM88.1094 12.7099H91.3532V10.0835H88.1094V12.7099Z" fill="#94979E"/>
<path d="M92.7617 27.6722H96.0056V23.2552H96.0454C96.6822 24.1108 97.6176 24.628 98.9311 24.628C101.597 24.628 103.369 22.5191 103.369 19.2162C103.369 16.1521 101.717 13.8242 99.0107 13.8242C97.6176 13.8242 96.6225 14.441 95.926 15.3563H95.8663V14.1227H92.7617V27.6722ZM98.0952 22.1211C96.7021 22.1211 95.9061 20.987 95.9061 19.3356C95.9061 17.6842 96.6225 16.4307 98.0355 16.4307C99.4286 16.4307 100.086 17.5847 100.086 19.3356C100.086 21.0666 99.3291 22.1211 98.0952 22.1211Z" fill="#94979E"/>
<path d="M108.65 24.628C111.317 24.628 113.288 23.4741 113.288 21.2456C113.288 18.6392 111.178 18.1816 109.387 17.8831C108.093 17.6444 106.939 17.5449 106.939 16.8286C106.939 16.1919 107.556 15.8935 108.352 15.8935C109.247 15.8935 109.864 16.172 109.984 17.0873H112.969C112.81 15.0777 111.257 13.8242 108.372 13.8242C105.963 13.8242 103.973 14.9385 103.973 17.0873C103.973 19.4749 105.864 19.9524 107.635 20.2508C108.989 20.4896 110.223 20.589 110.223 21.5044C110.223 22.1609 109.606 22.5191 108.63 22.5191C107.556 22.5191 106.879 22.0216 106.76 21.0069H103.695C103.794 23.2552 105.665 24.628 108.65 24.628Z" fill="#94979E"/>
<path d="M117.693 24.6081C119.106 24.6081 120.002 24.051 120.738 23.0561H120.798V24.3097H123.903V14.1226H120.659V19.813C120.659 21.0267 119.982 21.8624 118.868 21.8624C117.833 21.8624 117.335 21.2456 117.335 20.1314V14.1226H114.111V20.8079C114.111 23.076 115.345 24.6081 117.693 24.6081Z" fill="#94979E"/>
<path d="M125.312 24.3097H128.556V18.5994C128.556 17.3858 129.153 16.5301 130.168 16.5301C131.144 16.5301 131.601 17.1668 131.601 18.2612V24.3097H134.846V18.5994C134.846 17.3858 135.423 16.5301 136.458 16.5301C137.433 16.5301 137.891 17.1668 137.891 18.2612V24.3097H141.134V17.6842C141.134 15.3961 139.979 13.8242 137.672 13.8242C136.358 13.8242 135.263 14.3814 134.467 15.6149H134.428C133.91 14.5206 132.895 13.8242 131.562 13.8242C130.089 13.8242 129.114 14.5206 128.477 15.5751H128.417V14.1227H125.312V24.3097Z" fill="#94979E"/>
<path fill-rule="evenodd" clip-rule="evenodd" d="M17.4611 33.429C26.6204 33.429 34.0453 26.0056 34.0453 16.8485C34.0453 7.6914 26.6204 0.268066 17.4611 0.268066C8.30194 0.268066 0.876953 7.6914 0.876953 16.8485C0.876953 26.0056 8.30194 33.429 17.4611 33.429ZM20.0209 13.0786C21.4345 11.6652 21.4345 9.3737 20.0209 7.9603C18.6071 6.54691 16.3152 6.54691 14.9014 7.9603C13.4878 9.3737 13.4878 11.6652 14.9014 13.0786L17.4611 15.6378L20.0209 13.0786ZM21.232 19.4077C22.6457 20.8212 24.9377 20.8212 26.3514 19.4077C27.7651 17.9943 27.7651 15.7028 26.3514 14.2894C24.9377 12.8761 22.6457 12.8761 21.232 14.2894L18.6722 16.8486L21.232 19.4077ZM20.0209 25.7368C21.4345 24.3234 21.4345 22.0319 20.0209 20.6185L17.4611 18.0594L14.9014 20.6185C13.4878 22.0319 13.4878 24.3234 14.9014 25.7368C16.3152 27.1502 18.6071 27.1502 20.0209 25.7368ZM8.57088 19.4077C7.15721 17.9943 7.15721 15.7028 8.57088 14.2894C9.98463 12.8761 12.2767 12.8761 13.6904 14.2894L16.2501 16.8486L13.6904 19.4077C12.2767 20.8212 9.98463 20.8212 8.57088 19.4077Z" fill="#94979E"/>
</g>
</g>
<defs>
<clipPath id="clip0_262_652">
<rect width="141.99" height="33.99" fill="white"/>
</clipPath>
</defs>
</svg>
