<svg width="143" height="34" viewBox="0 0 143 34" fill="none" xmlns="http://www.w3.org/2000/svg">
<g clip-path="url(#clip0_262_609)">
<mask id="mask0_262_609" style="mask-type:luminance" maskUnits="userSpaceOnUse" x="1" y="0" width="142" height="34">
<path d="M142.193 0H1.22656V33.99H142.193V0Z" fill="white"/>
</mask>
<g mask="url(#mask0_262_609)">
<path d="M43.7461 24.3096H53.6568V21.3251H47.2685V10.0835H43.7461V24.3096Z" fill="#640EF1"/>
<path d="M59.5287 22.3202C58.1157 22.3202 57.3794 21.0866 57.3794 19.2363C57.3794 17.3858 58.1157 16.1324 59.5287 16.1324C60.9416 16.1324 61.6979 17.3858 61.6979 19.2363C61.6979 21.0866 60.9416 22.3202 59.5287 22.3202ZM59.5486 24.6282C62.8323 24.6282 64.9815 22.3004 64.9815 19.2363C64.9815 16.1722 62.8323 13.8442 59.5486 13.8442C56.2848 13.8442 54.0957 16.1722 54.0957 19.2363C54.0957 22.3004 56.2848 24.6282 59.5486 24.6282Z" fill="#640EF1"/>
<path d="M70.6649 27.8314C72.1773 27.8314 73.5107 27.4932 74.4063 26.6973C75.2222 25.9611 75.7596 24.847 75.7596 23.3149V14.1227H72.655V15.217H72.6152C72.0181 14.3615 71.1027 13.8242 69.7495 13.8242C67.222 13.8242 65.4707 15.9333 65.4707 18.9177C65.4707 22.0415 67.6001 23.7526 69.8888 23.7526C71.1226 23.7526 71.8987 23.2552 72.4958 22.5787H72.5754V23.5934C72.5754 24.8271 71.9982 25.5434 70.6251 25.5434C69.5504 25.5434 69.0131 25.0857 68.834 24.5485H65.6897C66.0081 26.6774 67.8588 27.8314 70.6649 27.8314ZM70.645 21.3451C69.431 21.3451 68.635 20.3503 68.635 18.8182C68.635 17.2663 69.431 16.2715 70.645 16.2715C71.9982 16.2715 72.7147 17.4256 72.7147 18.7984C72.7147 20.2309 72.0579 21.3451 70.645 21.3451Z" fill="#640EF1"/>
<path d="M82.1439 22.3202C80.7309 22.3202 79.9946 21.0866 79.9946 19.2363C79.9946 17.3858 80.7309 16.1324 82.1439 16.1324C83.5569 16.1324 84.3128 17.3858 84.3128 19.2363C84.3128 21.0866 83.5569 22.3202 82.1439 22.3202ZM82.1638 24.6282C85.4471 24.6282 87.5965 22.3004 87.5965 19.2363C87.5965 16.1722 85.4471 13.8442 82.1638 13.8442C78.9 13.8442 76.7109 16.1722 76.7109 19.2363C76.7109 22.3004 78.9 24.6282 82.1638 24.6282Z" fill="#640EF1"/>
<path d="M88.543 24.3096H91.7868V14.1225H88.543V24.3096ZM88.543 12.7099H91.7868V10.0835H88.543V12.7099Z" fill="#640EF1"/>
<path d="M93.1953 27.6722H96.4392V23.2552H96.479C97.1158 24.1108 98.0512 24.628 99.3646 24.628C102.032 24.628 103.802 22.5191 103.802 19.2162C103.802 16.1521 102.151 13.8242 99.4442 13.8242C98.0512 13.8242 97.056 14.441 96.3596 15.3563H96.2999V14.1227H93.1953V27.6722ZM98.5287 22.1211C97.1357 22.1211 96.3397 20.987 96.3397 19.3356C96.3397 17.6842 97.0561 16.4307 98.469 16.4307C99.8621 16.4307 100.519 17.5847 100.519 19.3356C100.519 21.0666 99.7627 22.1211 98.5287 22.1211Z" fill="#640EF1"/>
<path d="M109.085 24.628C111.751 24.628 113.721 23.4741 113.721 21.2456C113.721 18.6392 111.611 18.1816 109.821 17.8831C108.527 17.6444 107.373 17.5449 107.373 16.8286C107.373 16.1919 107.99 15.8935 108.786 15.8935C109.682 15.8935 110.298 16.172 110.417 17.0873H113.403C113.243 15.0777 111.691 13.8242 108.806 13.8242C106.398 13.8242 104.408 14.9385 104.408 17.0873C104.408 19.4749 106.298 19.9524 108.07 20.2508C109.423 20.4896 110.656 20.589 110.656 21.5044C110.656 22.1609 110.039 22.5191 109.065 22.5191C107.99 22.5191 107.313 22.0216 107.194 21.0069H104.129C104.228 23.2552 106.099 24.628 109.085 24.628Z" fill="#640EF1"/>
<path d="M118.128 24.6081C119.541 24.6081 120.436 24.051 121.172 23.0561H121.231V24.3097H124.336V14.1226H121.092V19.813C121.092 21.0267 120.416 21.8624 119.302 21.8624C118.267 21.8624 117.769 21.2456 117.769 20.1314V14.1226H114.545V20.8079C114.545 23.076 115.779 24.6081 118.128 24.6081Z" fill="#640EF1"/>
<path d="M125.748 24.3097H128.992V18.5994C128.992 17.3858 129.589 16.5301 130.604 16.5301C131.579 16.5301 132.037 17.1668 132.037 18.2612V24.3097H135.28V18.5994C135.28 17.3858 135.857 16.5301 136.892 16.5301C137.867 16.5301 138.325 17.1668 138.325 18.2612V24.3097H141.569V17.6842C141.569 15.3961 140.415 13.8242 138.106 13.8242C136.793 13.8242 135.698 14.3814 134.902 15.6149H134.862C134.345 14.5206 133.331 13.8242 131.997 13.8242C130.524 13.8242 129.549 14.5206 128.912 15.5751H128.852V14.1227H125.748V24.3097Z" fill="#640EF1"/>
<path fill-rule="evenodd" clip-rule="evenodd" d="M17.8948 33.429C27.054 33.429 34.4789 26.0056 34.4789 16.8485C34.4789 7.6914 27.054 0.268066 17.8948 0.268066C8.73554 0.268066 1.31055 7.6914 1.31055 16.8485C1.31055 26.0056 8.73554 33.429 17.8948 33.429ZM20.4545 13.0786C21.8681 11.6652 21.8681 9.3737 20.4545 7.9603C19.0408 6.54691 16.7487 6.54691 15.335 7.9603C13.9214 9.3737 13.9214 11.6652 15.335 13.0786L17.8948 15.6378L20.4545 13.0786ZM21.6656 19.4077C23.0793 20.8212 25.3713 20.8212 26.785 19.4077C28.1986 17.9943 28.1986 15.7028 26.785 14.2894C25.3713 12.8761 23.0793 12.8761 21.6656 14.2894L19.1059 16.8486L21.6656 19.4077ZM20.4545 25.7368C21.8681 24.3234 21.8681 22.0319 20.4545 20.6185L17.8948 18.0594L15.335 20.6185C13.9214 22.0319 13.9214 24.3234 15.335 25.7368C16.7487 27.1502 19.0408 27.1502 20.4545 25.7368ZM9.00448 19.4077C7.59081 17.9943 7.59081 15.7028 9.00448 14.2894C10.4182 12.8761 12.7102 12.8761 14.1239 14.2894L16.6836 16.8486L14.1239 19.4077C12.7102 20.8212 10.4182 20.8212 9.00448 19.4077Z" fill="#640EF1"/>
</g>
</g>
<defs>
<clipPath id="clip0_262_609">
<rect width="141.99" height="33.99" fill="white" transform="translate(0.970703)"/>
</clipPath>
</defs>
</svg>
