<svg width="143" height="34" viewBox="0 0 143 34" fill="none" xmlns="http://www.w3.org/2000/svg">
<g clip-path="url(#clip0_262_594)">
<mask id="mask0_262_594" style="mask-type:luminance" maskUnits="userSpaceOnUse" x="1" y="0" width="142" height="34">
<path d="M142.714 0H1.74805V33.99H142.714V0Z" fill="white"/>
</mask>
<g mask="url(#mask0_262_594)">
<path d="M44.2676 24.3096H54.1783V21.3251H47.79V10.0835H44.2676V24.3096Z" fill="#94979E"/>
<path d="M60.0502 22.3202C58.6372 22.3202 57.901 21.0866 57.901 19.2363C57.901 17.3858 58.6372 16.1324 60.0502 16.1324C61.4632 16.1324 62.2195 17.3858 62.2195 19.2363C62.2195 21.0866 61.4632 22.3202 60.0502 22.3202ZM60.0701 24.6282C63.3538 24.6282 65.5031 22.3004 65.5031 19.2363C65.5031 16.1722 63.3538 13.8442 60.0701 13.8442C56.8063 13.8442 54.6172 16.1722 54.6172 19.2363C54.6172 22.3004 56.8063 24.6282 60.0701 24.6282Z" fill="#94979E"/>
<path d="M71.1863 27.8314C72.6988 27.8314 74.0322 27.4932 74.9278 26.6973C75.7437 25.9611 76.281 24.847 76.281 23.3149V14.1227H73.1765V15.217H73.1366C72.5396 14.3615 71.6242 13.8242 70.2709 13.8242C67.7435 13.8242 65.9922 15.9333 65.9922 18.9177C65.9922 22.0415 68.1215 23.7526 70.4102 23.7526C71.6441 23.7526 72.4202 23.2552 73.0172 22.5787H73.0968V23.5934C73.0968 24.8271 72.5197 25.5434 71.1465 25.5434C70.0719 25.5434 69.5345 25.0857 69.3555 24.5485H66.2111C66.5295 26.6774 68.3803 27.8314 71.1863 27.8314ZM71.1664 21.3451C69.9525 21.3451 69.1565 20.3503 69.1565 18.8182C69.1565 17.2663 69.9525 16.2715 71.1664 16.2715C72.5197 16.2715 73.2362 17.4256 73.2362 18.7984C73.2362 20.2309 72.5794 21.3451 71.1664 21.3451Z" fill="#94979E"/>
<path d="M82.6654 22.3202C81.2524 22.3202 80.5161 21.0866 80.5161 19.2363C80.5161 17.3858 81.2524 16.1324 82.6654 16.1324C84.0783 16.1324 84.8343 17.3858 84.8343 19.2363C84.8343 21.0866 84.0783 22.3202 82.6654 22.3202ZM82.6853 24.6282C85.9686 24.6282 88.118 22.3004 88.118 19.2363C88.118 16.1722 85.9686 13.8442 82.6853 13.8442C79.4216 13.8442 77.2324 16.1722 77.2324 19.2363C77.2324 22.3004 79.4216 24.6282 82.6853 24.6282Z" fill="#94979E"/>
<path d="M89.0645 24.3096H92.3083V14.1225H89.0645V24.3096ZM89.0645 12.7099H92.3083V10.0835H89.0645V12.7099Z" fill="#94979E"/>
<path d="M93.7168 27.6722H96.9607V23.2552H97.0005C97.6373 24.1108 98.5727 24.628 99.8862 24.628C102.553 24.628 104.324 22.5191 104.324 19.2162C104.324 16.1521 102.673 13.8242 99.9658 13.8242C98.5727 13.8242 97.5776 14.441 96.8811 15.3563H96.8214V14.1227H93.7168V27.6722ZM99.0503 22.1211C97.6572 22.1211 96.8612 20.987 96.8612 19.3356C96.8612 17.6842 97.5776 16.4307 98.9906 16.4307C100.384 16.4307 101.041 17.5847 101.041 19.3356C101.041 21.0666 100.284 22.1211 99.0503 22.1211Z" fill="#94979E"/>
<path d="M109.605 24.628C112.272 24.628 114.243 23.4741 114.243 21.2456C114.243 18.6392 112.133 18.1816 110.342 17.8831C109.048 17.6444 107.894 17.5449 107.894 16.8286C107.894 16.1919 108.511 15.8935 109.307 15.8935C110.202 15.8935 110.819 16.172 110.939 17.0873H113.924C113.765 15.0777 112.212 13.8242 109.327 13.8242C106.918 13.8242 104.928 14.9385 104.928 17.0873C104.928 19.4749 106.819 19.9524 108.59 20.2508C109.944 20.4896 111.178 20.589 111.178 21.5044C111.178 22.1609 110.561 22.5191 109.585 22.5191C108.511 22.5191 107.834 22.0216 107.715 21.0069H104.65C104.749 23.2552 106.62 24.628 109.605 24.628Z" fill="#94979E"/>
<path d="M118.648 24.6081C120.061 24.6081 120.957 24.051 121.693 23.0561H121.753V24.3097H124.858V14.1226H121.614V19.813C121.614 21.0267 120.937 21.8624 119.823 21.8624C118.788 21.8624 118.29 21.2456 118.29 20.1314V14.1226H115.066V20.8079C115.066 23.076 116.3 24.6081 118.648 24.6081Z" fill="#94979E"/>
<path d="M126.268 24.3097H129.511V18.5994C129.511 17.3858 130.108 16.5301 131.123 16.5301C132.099 16.5301 132.556 17.1668 132.556 18.2612V24.3097H135.801V18.5994C135.801 17.3858 136.378 16.5301 137.413 16.5301C138.388 16.5301 138.846 17.1668 138.846 18.2612V24.3097H142.089V17.6842C142.089 15.3961 140.935 13.8242 138.627 13.8242C137.313 13.8242 136.218 14.3814 135.422 15.6149H135.383C134.865 14.5206 133.85 13.8242 132.517 13.8242C131.044 13.8242 130.069 14.5206 129.432 15.5751H129.372V14.1227H126.268V24.3097Z" fill="#94979E"/>
<path fill-rule="evenodd" clip-rule="evenodd" d="M18.4162 33.429C27.5754 33.429 35.0004 26.0056 35.0004 16.8485C35.0004 7.6914 27.5754 0.268066 18.4162 0.268066C9.25702 0.268066 1.83203 7.6914 1.83203 16.8485C1.83203 26.0056 9.25702 33.429 18.4162 33.429ZM20.976 13.0786C22.3896 11.6652 22.3896 9.3737 20.976 7.9603C19.5622 6.54691 17.2703 6.54691 15.8565 7.9603C14.4429 9.3737 14.4429 11.6652 15.8565 13.0786L18.4162 15.6378L20.976 13.0786ZM22.187 19.4077C23.6007 20.8212 25.8928 20.8212 27.3065 19.4077C28.7202 17.9943 28.7202 15.7028 27.3065 14.2894C25.8928 12.8761 23.6007 12.8761 22.187 14.2894L19.6273 16.8486L22.187 19.4077ZM20.976 25.7368C22.3896 24.3234 22.3896 22.0319 20.976 20.6185L18.4162 18.0594L15.8565 20.6185C14.4429 22.0319 14.4429 24.3234 15.8565 25.7368C17.2703 27.1502 19.5622 27.1502 20.976 25.7368ZM9.52596 19.4077C8.11229 17.9943 8.11229 15.7028 9.52596 14.2894C10.9397 12.8761 13.2318 12.8761 14.6455 14.2894L17.2052 16.8486L14.6455 19.4077C13.2318 20.8212 10.9397 20.8212 9.52596 19.4077Z" fill="#94979E"/>
</g>
</g>
<defs>
<clipPath id="clip0_262_594">
<rect width="141.99" height="33.99" fill="white" transform="translate(0.955078)"/>
</clipPath>
</defs>
</svg>
