<svg width="156" height="34" viewBox="0 0 156 34" fill="none" xmlns="http://www.w3.org/2000/svg">
<path d="M46.8613 22.6846C46.8613 23.4266 46.7089 23.9968 46.4042 24.395C46.1074 24.7934 45.6113 24.9926 44.916 24.9926C44.2597 24.9926 43.7949 24.7934 43.5214 24.395C43.2558 23.9968 43.123 23.4266 43.123 22.6846V10.3016C43.123 9.5596 43.2558 8.98946 43.5214 8.59114C43.7949 8.19281 44.2597 7.99365 44.916 7.99365C45.6113 7.99365 46.1074 8.19281 46.4042 8.59114C46.7089 8.98946 46.8613 9.5596 46.8613 10.3016V22.6846Z" fill="#94979E"/>
<path d="M47.9961 19.0881C47.9961 18.2601 48.1289 17.4792 48.3946 16.745C48.668 16.003 49.0742 15.3548 49.6133 14.8002C50.1602 14.2457 50.8399 13.8044 51.6524 13.4764C52.4727 13.1483 53.4336 12.9844 54.5352 12.9844C55.5899 12.9844 56.5235 13.1366 57.336 13.4412C58.1485 13.7459 58.8321 14.1715 59.3867 14.7183C59.9414 15.2571 60.3633 15.9014 60.6524 16.6512C60.9414 17.3932 61.086 18.2054 61.086 19.0881C61.086 19.9081 60.9492 20.6852 60.6758 21.4194C60.4024 22.1457 59.9922 22.7862 59.4453 23.3407C58.8985 23.8874 58.2149 24.3247 57.3946 24.6528C56.5742 24.973 55.6211 25.1331 54.5352 25.1331C53.4649 25.1331 52.5196 24.9808 51.6992 24.6762C50.8867 24.3638 50.2032 23.9382 49.6485 23.3992C49.1016 22.8526 48.6875 22.2122 48.4063 21.478C48.1328 20.736 47.9961 19.9393 47.9961 19.0881ZM51.8985 19.0881C51.8985 19.6035 51.9453 20.0956 52.0391 20.5641C52.1328 21.0249 52.2813 21.4311 52.4844 21.7826C52.6953 22.134 52.9688 22.4152 53.3047 22.626C53.6407 22.8291 54.0508 22.9306 54.5352 22.9306C54.9805 22.9306 55.3672 22.837 55.6953 22.6494C56.0313 22.4621 56.3047 22.2004 56.5157 21.8646C56.7344 21.5288 56.8985 21.1265 57.0078 20.6579C57.1172 20.1815 57.1719 19.6582 57.1719 19.0881C57.1719 18.5725 57.1211 18.0844 57.0196 17.6236C56.9258 17.155 56.7735 16.745 56.5625 16.3935C56.3516 16.0343 56.0782 15.7531 55.7422 15.55C55.4141 15.3392 55.0117 15.2337 54.5352 15.2337C54.0586 15.2337 53.6524 15.3352 53.3164 15.5383C52.9805 15.7414 52.7071 16.0186 52.4961 16.3701C52.2852 16.7216 52.1328 17.1316 52.0391 17.6002C51.9453 18.0688 51.8985 18.5647 51.8985 19.0881Z" fill="#94979E"/>
<path d="M70.7051 22.7316C70.4941 23.122 70.2363 23.4539 69.9316 23.7274C69.6348 24.0007 69.3027 24.2272 68.9356 24.4069C68.5762 24.5786 68.1895 24.7075 67.7754 24.7934C67.3691 24.8715 66.9512 24.9106 66.5215 24.9106C65.8027 24.9106 65.1465 24.7817 64.5527 24.5239C63.959 24.2662 63.4473 23.8952 63.0176 23.4111C62.5957 22.919 62.2676 22.3176 62.0332 21.6069C61.7988 20.8961 61.6816 20.0838 61.6816 19.1701C61.6816 18.311 61.791 17.5065 62.0098 16.7567C62.2285 16.0069 62.5449 15.3548 62.959 14.8003C63.3809 14.2457 63.8965 13.8084 64.5059 13.4882C65.1152 13.168 65.8106 13.0078 66.5918 13.0078C67.4824 13.0078 68.2715 13.1797 68.959 13.5233C69.6543 13.867 70.252 14.4293 70.752 15.2103V14.9058C70.752 14.3434 70.9043 13.9216 71.209 13.6404C71.5215 13.3515 71.9512 13.207 72.4981 13.207C72.8262 13.207 73.1035 13.2616 73.3301 13.371C73.5566 13.4726 73.7363 13.6287 73.8691 13.8397C74.002 14.0427 74.0957 14.2965 74.1504 14.6011C74.2129 14.8979 74.2441 15.2377 74.2441 15.6203V23.4696C74.2441 24.4225 74.1231 25.2737 73.8809 26.0235C73.6465 26.7733 73.2793 27.406 72.7793 27.9214C72.2793 28.4369 71.6387 28.8274 70.8574 29.093C70.0762 29.3663 69.1465 29.503 68.0684 29.503C67.3106 29.503 66.6387 29.4679 66.0527 29.3975C65.4746 29.3351 64.9746 29.2374 64.5527 29.1047C64.1309 28.9562 63.8106 28.7923 63.5918 28.6126C63.3809 28.433 63.2754 28.1986 63.2754 27.9097C63.2754 27.7457 63.2988 27.5895 63.3457 27.4411C63.3926 27.2927 63.4629 27.1599 63.5566 27.0428C63.6582 26.9334 63.7871 26.8436 63.9434 26.7733C64.1074 26.7109 64.3066 26.6796 64.541 26.6796C64.791 26.6796 65.041 26.6952 65.291 26.7265C65.5488 26.7577 65.8145 26.789 66.0879 26.8201C66.3691 26.8592 66.6621 26.8943 66.9668 26.9256C67.2793 26.9568 67.6152 26.9725 67.9746 26.9725C68.4043 26.9725 68.7871 26.9295 69.1231 26.8436C69.459 26.7577 69.7441 26.6054 69.9785 26.3867C70.2129 26.168 70.3926 25.8751 70.5176 25.508C70.6426 25.1487 70.7051 24.688 70.7051 24.1256V22.7316ZM70.7051 19.0881C70.7051 18.5179 70.6621 17.9985 70.5762 17.53C70.4981 17.0613 70.3613 16.663 70.166 16.3349C69.9707 15.9991 69.709 15.7414 69.3809 15.5618C69.0527 15.3743 68.6426 15.2806 68.1504 15.2806C67.666 15.2806 67.2637 15.3782 66.9434 15.5735C66.6309 15.7687 66.3809 16.0382 66.1934 16.3818C66.0059 16.7255 65.8731 17.1277 65.7949 17.5886C65.7246 18.0493 65.6895 18.5414 65.6895 19.0646C65.6895 20.2596 65.9004 21.1578 66.3223 21.7591C66.7441 22.3606 67.3574 22.6613 68.1621 22.6613C68.5371 22.6535 68.877 22.5831 69.1816 22.4503C69.4941 22.3098 69.7637 22.095 69.9902 21.806C70.2168 21.517 70.3926 21.1499 70.5176 20.7047C70.6426 20.2596 70.7051 19.7207 70.7051 19.0881Z" fill="#94979E"/>
<path d="M75.3203 19.0881C75.3203 18.2601 75.4531 17.4792 75.7187 16.745C75.9922 16.003 76.3984 15.3548 76.9375 14.8002C77.4844 14.2457 78.164 13.8044 78.9765 13.4764C79.7969 13.1483 80.7578 12.9844 81.8594 12.9844C82.914 12.9844 83.8476 13.1366 84.6601 13.4412C85.4726 13.7459 86.1562 14.1715 86.7109 14.7183C87.2656 15.2571 87.6875 15.9014 87.9765 16.6512C88.2656 17.3932 88.4101 18.2054 88.4101 19.0881C88.4101 19.9081 88.2734 20.6852 88 21.4194C87.7265 22.1457 87.3164 22.7862 86.7695 23.3407C86.2226 23.8874 85.539 24.3247 84.7187 24.6528C83.8984 24.973 82.9453 25.1331 81.8594 25.1331C80.789 25.1331 79.8437 24.9808 79.0234 24.6762C78.2109 24.3638 77.5273 23.9382 76.9726 23.3992C76.4258 22.8526 76.0117 22.2122 75.7304 21.478C75.457 20.736 75.3203 19.9393 75.3203 19.0881ZM79.2226 19.0881C79.2226 19.6035 79.2695 20.0956 79.3633 20.5641C79.457 21.0249 79.6054 21.4311 79.8086 21.7826C80.0195 22.134 80.2929 22.4152 80.6289 22.626C80.9648 22.8291 81.375 22.9306 81.8594 22.9306C82.3047 22.9306 82.6914 22.837 83.0195 22.6494C83.3554 22.4621 83.6289 22.2004 83.8398 21.8646C84.0586 21.5288 84.2226 21.1265 84.332 20.6579C84.4414 20.1815 84.4961 19.6582 84.4961 19.0881C84.4961 18.5725 84.4453 18.0844 84.3437 17.6236C84.25 17.155 84.0976 16.745 83.8867 16.3935C83.6758 16.0343 83.4023 15.7531 83.0664 15.55C82.7383 15.3392 82.3359 15.2337 81.8594 15.2337C81.3828 15.2337 80.9765 15.3352 80.6406 15.5383C80.3047 15.7414 80.0312 16.0186 79.8203 16.3701C79.6094 16.7216 79.457 17.1316 79.3633 17.6002C79.2695 18.0688 79.2226 18.5647 79.2226 19.0881Z" fill="#94979E"/>
<path d="M93.4375 9.03664C93.4375 9.29439 93.3789 9.52478 93.2617 9.72785C93.1445 9.9231 92.9922 10.0871 92.8047 10.2199C92.6172 10.3527 92.3984 10.4542 92.1484 10.5244C91.9063 10.5869 91.6563 10.6182 91.3984 10.6182C91.125 10.6182 90.8633 10.583 90.6133 10.5128C90.3711 10.4425 90.1563 10.341 89.9688 10.2081C89.7813 10.0676 89.6328 9.89967 89.5234 9.70442C89.4141 9.50917 89.3594 9.28657 89.3594 9.03664C89.3594 8.81015 89.4102 8.60318 89.5117 8.41574C89.6211 8.22048 89.7656 8.05256 89.9453 7.91198C90.125 7.7714 90.3399 7.66205 90.5899 7.58395C90.8399 7.50585 91.1133 7.4668 91.4102 7.4668C91.668 7.4668 91.918 7.50195 92.1602 7.57224C92.4102 7.64253 92.6289 7.74406 92.8164 7.87684C93.0039 8.00961 93.1524 8.17362 93.2617 8.36887C93.3789 8.56413 93.4375 8.78672 93.4375 9.03664ZM93.2617 22.685C93.2617 23.427 93.1094 23.9971 92.8047 24.3954C92.5078 24.7937 92.0117 24.9929 91.3164 24.9929C90.6602 24.9929 90.1953 24.7937 89.9219 24.3954C89.6563 23.9971 89.5234 23.427 89.5234 22.685V15.5152C89.5234 14.7732 89.6563 14.2031 89.9219 13.8048C90.1953 13.4065 90.6602 13.2073 91.3164 13.2073C92.0117 13.2073 92.5078 13.4065 92.8047 13.8048C93.1094 14.2031 93.2617 14.7732 93.2617 15.5152V22.685Z" fill="#94979E"/>
<path d="M98.6504 19.0646C98.6504 19.588 98.6894 20.076 98.7676 20.5291C98.8535 20.9821 98.9941 21.3803 99.1894 21.724C99.3926 22.0598 99.6582 22.3254 99.9863 22.5206C100.322 22.716 100.736 22.8135 101.228 22.8135C101.681 22.8135 102.06 22.7199 102.365 22.5324C102.677 22.3372 102.927 22.0715 103.115 21.7357C103.302 21.392 103.435 20.9899 103.513 20.5291C103.599 20.0682 103.642 19.5684 103.642 19.0295C103.642 18.6 103.611 18.1626 103.548 17.7174C103.486 17.2644 103.369 16.8544 103.197 16.4873C103.025 16.1202 102.787 15.8195 102.482 15.5852C102.177 15.3509 101.779 15.2338 101.287 15.2338C100.795 15.2338 100.377 15.3118 100.033 15.4681C99.6972 15.6242 99.4238 15.8625 99.2129 16.1827C99.0097 16.5029 98.8652 16.9052 98.7793 17.3893C98.6933 17.8658 98.6504 18.4242 98.6504 19.0646ZM98.6387 15.5149C98.834 15.101 99.084 14.7378 99.3887 14.4254C99.6933 14.113 100.029 13.8514 100.396 13.6404C100.764 13.4296 101.146 13.2733 101.545 13.1719C101.951 13.0625 102.353 13.0078 102.751 13.0078C103.47 13.0078 104.119 13.168 104.697 13.4882C105.275 13.8084 105.767 14.2457 106.173 14.8003C106.587 15.347 106.904 15.9952 107.123 16.745C107.341 17.487 107.451 18.2837 107.451 19.1349C107.451 20.0175 107.333 20.8258 107.099 21.56C106.873 22.2942 106.548 22.9268 106.126 23.4578C105.712 23.9812 105.212 24.3912 104.626 24.688C104.048 24.9848 103.404 25.1331 102.693 25.1331C101.818 25.1331 101.037 24.9301 100.35 24.5239C99.6621 24.1178 99.0918 23.5477 98.6387 22.8135V27.0311C98.6387 27.773 98.4863 28.3432 98.1816 28.7415C97.8847 29.1398 97.3887 29.339 96.6933 29.339C96.0371 29.339 95.5722 29.1398 95.2988 28.7415C95.0332 28.3432 94.9004 27.773 94.9004 27.0311V15.5149C94.9004 14.7729 95.0332 14.2028 95.2988 13.8045C95.5722 13.4062 96.0371 13.207 96.6933 13.207C97.3887 13.207 97.8847 13.4062 98.1816 13.8045C98.4863 14.2028 98.6387 14.7729 98.6387 15.5149Z" fill="#94979E"/>
<path d="M111.573 16.3467C111.573 16.6512 111.706 16.8894 111.971 17.0613C112.237 17.2253 112.604 17.362 113.073 17.4714C113.518 17.5728 113.975 17.6705 114.444 17.7642C114.913 17.8579 115.37 17.9673 115.815 18.0923C116.26 18.2093 116.678 18.35 117.069 18.5139C117.459 18.678 117.803 18.8849 118.1 19.1349C118.397 19.377 118.631 19.6738 118.803 20.0252C118.975 20.3689 119.061 20.7829 119.061 21.267C119.061 21.8763 118.936 22.4191 118.686 22.8955C118.436 23.3641 118.081 23.7624 117.62 24.0905C117.167 24.4185 116.624 24.6723 115.991 24.852C115.358 25.0316 114.659 25.1253 113.893 25.1331C113.167 25.1331 112.467 25.0863 111.795 24.9925C111.124 24.9067 110.526 24.7699 110.002 24.5825C109.487 24.395 109.073 24.1647 108.76 23.8913C108.448 23.6101 108.292 23.2821 108.292 22.9073C108.292 22.5792 108.397 22.3253 108.608 22.1457C108.819 21.9661 109.088 21.8763 109.417 21.8763C109.542 21.8763 109.69 21.8997 109.862 21.9465C110.034 21.9934 110.221 22.052 110.424 22.1223C110.627 22.1926 110.842 22.2706 111.069 22.3566C111.303 22.4347 111.545 22.505 111.795 22.5675C112.108 22.6534 112.428 22.7237 112.756 22.7784C113.092 22.8252 113.436 22.8487 113.788 22.8487C114.006 22.8487 114.221 22.8291 114.432 22.7901C114.643 22.7432 114.831 22.6768 114.995 22.5909C115.167 22.4972 115.307 22.38 115.417 22.2395C115.526 22.0989 115.592 21.927 115.616 21.724C115.639 21.6771 115.659 21.6302 115.674 21.5833C115.69 21.5366 115.698 21.4819 115.698 21.4194C115.698 21.2007 115.596 21.0054 115.393 20.8336C115.198 20.6618 114.92 20.5251 114.561 20.4236C113.959 20.283 113.385 20.1542 112.838 20.037C112.292 19.9198 111.784 19.7949 111.315 19.6621C110.854 19.5293 110.432 19.377 110.049 19.2051C109.674 19.0334 109.354 18.8225 109.088 18.5725C108.831 18.3226 108.627 18.0219 108.479 17.6705C108.338 17.319 108.268 16.8933 108.268 16.3935C108.268 15.8546 108.389 15.3743 108.631 14.9525C108.881 14.5229 109.237 14.1637 109.698 13.8747C110.159 13.5857 110.717 13.3671 111.374 13.2187C112.03 13.0625 112.772 12.9844 113.6 12.9844C115.084 12.9844 116.213 13.164 116.987 13.5232C117.768 13.8747 118.159 14.3355 118.159 14.9057C118.159 15.2259 118.053 15.4719 117.842 15.6437C117.631 15.8077 117.377 15.8897 117.081 15.8897C116.924 15.8897 116.76 15.8624 116.588 15.8077C116.424 15.7453 116.225 15.6789 115.991 15.6086C115.756 15.5305 115.475 15.4641 115.147 15.4095C114.827 15.347 114.428 15.3157 113.952 15.3157C113.592 15.3157 113.264 15.3313 112.967 15.3626C112.678 15.3938 112.428 15.4485 112.217 15.5265C112.014 15.6047 111.854 15.7101 111.737 15.8429C111.627 15.9757 111.573 16.1435 111.573 16.3467Z" fill="#94979E"/>
<path d="M123.818 20.6462C123.818 21.0133 123.865 21.3335 123.959 21.607C124.06 21.8803 124.197 22.1107 124.369 22.2982C124.541 22.4778 124.74 22.6145 124.966 22.7081C125.201 22.7941 125.451 22.8371 125.716 22.8371C126.029 22.8371 126.33 22.7902 126.619 22.6964C126.908 22.6028 127.162 22.4582 127.381 22.263C127.607 22.0677 127.787 21.8217 127.92 21.5249C128.052 21.2282 128.119 20.8806 128.119 20.4823V15.515C128.119 14.773 128.252 14.2028 128.517 13.8046C128.791 13.4063 129.256 13.207 129.912 13.207C130.607 13.207 131.103 13.4063 131.4 13.8046C131.705 14.2028 131.857 14.773 131.857 15.515V22.6847C131.857 23.4267 131.705 23.9969 131.4 24.3951C131.103 24.7935 130.607 24.9927 129.912 24.9927C129.256 24.9927 128.791 24.7935 128.517 24.3951C128.252 23.9969 128.119 23.4267 128.119 22.6847C127.955 23.044 127.74 23.372 127.474 23.6689C127.216 23.9657 126.912 24.2234 126.56 24.442C126.216 24.653 125.834 24.8169 125.412 24.9341C124.998 25.0512 124.548 25.1098 124.064 25.1098C123.541 25.1098 123.037 25.02 122.552 24.8404C122.076 24.653 121.654 24.3795 121.287 24.0203C120.92 23.6533 120.627 23.2002 120.408 22.6613C120.189 22.1224 120.08 21.4937 120.08 20.7751V15.515C120.08 14.773 120.213 14.2028 120.478 13.8046C120.752 13.4063 121.216 13.207 121.873 13.207C122.568 13.207 123.064 13.4063 123.361 13.8046C123.666 14.2028 123.818 14.773 123.818 15.515V20.6462Z" fill="#94979E"/>
<path d="M133.553 15.5149C133.553 14.7729 133.686 14.2028 133.952 13.8045C134.225 13.4062 134.69 13.207 135.346 13.207C136.042 13.207 136.538 13.4062 136.835 13.8045C137.139 14.2028 137.292 14.7729 137.292 15.5149C137.448 15.14 137.659 14.8003 137.925 14.4957C138.198 14.1833 138.507 13.9177 138.85 13.699C139.202 13.4804 139.581 13.3124 139.987 13.1953C140.393 13.0703 140.815 13.0078 141.253 13.0078C141.659 13.0078 142.057 13.0625 142.448 13.1719C142.846 13.2733 143.214 13.4413 143.55 13.6756C143.893 13.902 144.194 14.1911 144.452 14.5426C144.71 14.894 144.909 15.3157 145.05 15.8078C145.292 15.2845 145.577 14.8433 145.905 14.484C146.233 14.1247 146.589 13.8357 146.971 13.617C147.354 13.3983 147.753 13.2421 148.167 13.1484C148.589 13.0547 149.01 13.0078 149.432 13.0078C149.932 13.0078 150.409 13.0977 150.862 13.2772C151.323 13.4569 151.725 13.7303 152.069 14.0974C152.421 14.4566 152.698 14.9136 152.901 15.4681C153.112 16.0147 153.217 16.6552 153.217 17.3893V22.6847C153.217 23.4266 153.065 23.9968 152.76 24.3951C152.464 24.7934 151.967 24.9926 151.272 24.9926C150.616 24.9926 150.151 24.7934 149.878 24.3951C149.612 23.9968 149.479 23.4266 149.479 22.6847V17.5534C149.479 17.2019 149.432 16.8895 149.339 16.6162C149.245 16.3349 149.112 16.1007 148.94 15.9133C148.776 15.718 148.581 15.5735 148.354 15.4798C148.128 15.3782 147.885 15.3274 147.628 15.3274C147.307 15.3274 147.003 15.3782 146.714 15.4798C146.425 15.5813 146.171 15.7375 145.952 15.9483C145.741 16.1593 145.569 16.4287 145.436 16.7567C145.311 17.0847 145.249 17.4792 145.249 17.94V22.6847C145.249 23.4266 145.096 23.9968 144.792 24.3951C144.495 24.7934 143.999 24.9926 143.303 24.9926C142.647 24.9926 142.182 24.7934 141.909 24.3951C141.643 23.9968 141.51 23.4266 141.51 22.6847V17.7759C141.51 16.9715 141.342 16.3623 141.007 15.9483C140.678 15.5345 140.229 15.3274 139.659 15.3274C139.323 15.3274 139.01 15.3821 138.721 15.4915C138.432 15.6009 138.182 15.7609 137.971 15.9718C137.76 16.1827 137.592 16.4443 137.467 16.7567C137.35 17.0691 137.292 17.4284 137.292 17.8345V22.6847C137.292 23.4266 137.139 23.9968 136.835 24.3951C136.538 24.7934 136.042 24.9926 135.346 24.9926C134.69 24.9926 134.225 24.7934 133.952 24.3951C133.686 23.9968 133.553 23.4266 133.553 22.6847V15.5149Z" fill="#94979E"/>
<path d="M18.752 22.9931C15.4383 22.9931 12.752 20.3075 12.752 16.9948C12.752 13.6821 15.4383 10.9966 18.752 10.9966C22.0657 10.9966 24.752 13.6821 24.752 16.9948C24.752 20.3075 22.0657 22.9931 18.752 22.9931Z" fill="#94979E"/>
<path d="M7.12898 19.0442C5.39023 19.3507 4.19841 21.0298 4.86586 22.664C5.7977 24.9453 7.28433 26.9779 9.21164 28.5662C11.9676 30.8373 15.4436 32.0508 19.0146 31.9885C22.5856 31.9262 26.0172 30.5921 28.6922 28.2262C30.5628 26.5717 31.9776 24.4884 32.8293 22.176C33.4393 20.5196 32.1895 18.8831 30.4411 18.6374C28.6928 18.3918 27.123 19.664 26.2594 21.2036C25.7913 22.038 25.1836 22.7951 24.4556 23.439C22.9208 24.7965 20.9519 25.5619 18.9031 25.5977C16.8542 25.6334 14.8598 24.9372 13.2786 23.6341C12.5285 23.016 11.8948 22.2806 11.3978 21.4629C10.481 19.9545 8.86773 18.7377 7.12898 19.0442Z" fill="#94979E"/>
<path d="M33.636 18.869C33.7126 18.2551 33.752 17.6297 33.752 16.9951C33.752 8.71327 27.0363 1.99951 18.752 1.99951C10.4677 1.99951 3.75195 8.71327 3.75195 16.9951C3.75195 17.8096 3.8169 18.6088 3.94191 19.3881C4.63089 18.4452 5.70621 17.7721 6.86771 17.5673C8.1244 17.3458 9.26653 17.6505 10.2322 18.22C10.1752 17.82 10.1457 17.411 10.1457 16.9951C10.1457 12.2434 13.9989 8.39133 18.752 8.39133C23.5051 8.39133 27.3583 12.2434 27.3583 16.9951C27.3583 17.3084 27.3415 17.6178 27.3089 17.9224C28.2542 17.3193 29.3852 16.9747 30.6491 17.1524C31.8167 17.3164 32.9145 17.9512 33.636 18.869Z" fill="#94979E"/>
</svg>
