<svg width="147" height="40" viewBox="0 0 147 40" fill="none" xmlns="http://www.w3.org/2000/svg">
<g clip-path="url(#clip0_98_543)">
<g clip-path="url(#clip1_98_543)">
<path d="M0 5.33334C0 3.46649 0 2.53307 0.363312 1.82003C0.68289 1.19282 1.19282 0.68289 1.82003 0.363312C2.53307 0 3.46649 0 5.33333 0H34.6667C36.5335 0 37.4669 0 38.18 0.363312C38.8072 0.68289 39.3171 1.19282 39.6367 1.82003C40 2.53307 40 3.46649 40 5.33333V34.6667C40 36.5335 40 37.4669 39.6367 38.18C39.3171 38.8072 38.8072 39.3171 38.18 39.6367C37.4669 40 36.5335 40 34.6667 40H5.33334C3.46649 40 2.53307 40 1.82003 39.6367C1.19282 39.3171 0.68289 38.8072 0.363312 38.18C0 37.4669 0 36.5335 0 34.6667V5.33334Z" fill="#6100FF"/>
<path d="M31.6657 10L15.746 30H9.99902V10H15.746V21.2859L24.7324 10L31.6657 10Z" fill="white"/>
<path d="M30.799 30H23.793L19.7664 25.0027H26.7786L30.799 30Z" fill="white"/>
</g>
<path d="M71.48 31.6665H66.685L57.025 20.0115V31.6665H53V7.1665H57.025V18.1565L66.335 7.1665H71.13L61.225 19.1015L71.48 31.6665Z" fill="white"/>
<path d="M84.9553 14.1665H88.7353V31.6665H84.9553V29.4265C83.8119 31.2232 82.0036 32.1215 79.5303 32.1215C77.5236 32.1215 75.9019 31.4798 74.6653 30.1965C73.4286 28.9132 72.8103 27.1515 72.8103 24.9115V14.1665H76.5903V24.5265C76.5903 25.8332 76.9403 26.8365 77.6403 27.5365C78.3403 28.2365 79.2969 28.5865 80.5103 28.5865C81.8403 28.5865 82.9136 28.1782 83.7303 27.3615C84.5469 26.5215 84.9553 25.2498 84.9553 23.5465V14.1665Z" fill="white"/>
<path d="M97.6704 28.0965H106.175V31.6665H92.5254V29.1465L100.715 17.7365H92.8754V14.1665H105.825V16.6865L97.6704 28.0965Z" fill="white"/>
<path d="M122.499 14.1665H126.279V31.6665H122.499V29.1465C121.075 31.1298 119.034 32.1215 116.374 32.1215C113.97 32.1215 111.917 31.2348 110.214 29.4615C108.51 27.6648 107.659 25.4832 107.659 22.9165C107.659 20.3265 108.51 18.1448 110.214 16.3715C111.917 14.5982 113.97 13.7115 116.374 13.7115C119.034 13.7115 121.075 14.6915 122.499 16.6515V14.1665ZM113.014 26.9415C114.064 27.9915 115.382 28.5165 116.969 28.5165C118.555 28.5165 119.874 27.9915 120.924 26.9415C121.974 25.8682 122.499 24.5265 122.499 22.9165C122.499 21.3065 121.974 19.9765 120.924 18.9265C119.874 17.8532 118.555 17.3165 116.969 17.3165C115.382 17.3165 114.064 17.8532 113.014 18.9265C111.964 19.9765 111.439 21.3065 111.439 22.9165C111.439 24.5265 111.964 25.8682 113.014 26.9415Z" fill="white"/>
<path d="M139.89 13.7115C141.896 13.7115 143.518 14.3532 144.755 15.6365C145.991 16.9198 146.61 18.6815 146.61 20.9215V31.6665H142.83V21.3065C142.83 19.9998 142.48 18.9965 141.78 18.2965C141.08 17.5965 140.123 17.2465 138.91 17.2465C137.58 17.2465 136.506 17.6665 135.69 18.5065C134.873 19.3232 134.465 20.5832 134.465 22.2865V31.6665H130.685V14.1665H134.465V16.4065C135.608 14.6098 137.416 13.7115 139.89 13.7115Z" fill="white"/>
</g>
<defs>
<clipPath id="clip0_98_543">
<rect width="147" height="40" fill="white"/>
</clipPath>
<clipPath id="clip1_98_543">
<rect width="40" height="40" fill="white" transform="matrix(-1 0 0 1 40 0)"/>
</clipPath>
</defs>
</svg>
