<svg width="148" height="40" viewBox="0 0 148 40" fill="none" xmlns="http://www.w3.org/2000/svg">
<g clip-path="url(#clip0_98_549)">
<g clip-path="url(#clip1_98_549)">
<rect width="40" height="40" transform="matrix(-1 0 0 1 40.6748 0)" fill="black"/>
<path d="M0.674805 5.33334C0.674805 3.46649 0.674805 2.53307 1.03812 1.82003C1.35769 1.19282 1.86763 0.68289 2.49484 0.363312C3.20788 0 4.1413 0 6.00814 0H35.3415C37.2083 0 38.1417 0 38.8548 0.363312C39.482 0.68289 39.9919 1.19282 40.3115 1.82003C40.6748 2.53307 40.6748 3.46649 40.6748 5.33333V34.6667C40.6748 36.5335 40.6748 37.4669 40.3115 38.18C39.9919 38.8072 39.482 39.3171 38.8548 39.6367C38.1417 40 37.2083 40 35.3415 40H6.00814C4.1413 40 3.20788 40 2.49484 39.6367C1.86763 39.3171 1.35769 38.8072 1.03812 38.18C0.674805 37.4669 0.674805 36.5335 0.674805 34.6667V5.33334Z" fill="white"/>
<path d="M32.3405 10L16.4208 30H10.6738V10H16.4208V21.2859L25.4072 10L32.3405 10Z" fill="black"/>
<path d="M31.4738 30H24.4678L20.4412 25.0027H27.4534L31.4738 30Z" fill="black"/>
</g>
<path d="M72.1548 31.6665H67.3598L57.6998 20.0115V31.6665H53.6748V7.1665H57.6998V18.1565L67.0098 7.1665H71.8048L61.8998 19.1015L72.1548 31.6665Z" fill="white"/>
<path d="M85.6301 14.1665H89.4101V31.6665H85.6301V29.4265C84.4867 31.2232 82.6784 32.1215 80.2051 32.1215C78.1984 32.1215 76.5767 31.4798 75.3401 30.1965C74.1034 28.9132 73.4851 27.1515 73.4851 24.9115V14.1665H77.2651V24.5265C77.2651 25.8332 77.6151 26.8365 78.3151 27.5365C79.0151 28.2365 79.9717 28.5865 81.1851 28.5865C82.5151 28.5865 83.5884 28.1782 84.4051 27.3615C85.2217 26.5215 85.6301 25.2498 85.6301 23.5465V14.1665Z" fill="white"/>
<path d="M98.3452 28.0965H106.85V31.6665H93.2002V29.1465L101.39 17.7365H93.5502V14.1665H106.5V16.6865L98.3452 28.0965Z" fill="white"/>
<path d="M123.174 14.1665H126.954V31.6665H123.174V29.1465C121.75 31.1298 119.709 32.1215 117.049 32.1215C114.645 32.1215 112.592 31.2348 110.889 29.4615C109.185 27.6648 108.334 25.4832 108.334 22.9165C108.334 20.3265 109.185 18.1448 110.889 16.3715C112.592 14.5982 114.645 13.7115 117.049 13.7115C119.709 13.7115 121.75 14.6915 123.174 16.6515V14.1665ZM113.689 26.9415C114.739 27.9915 116.057 28.5165 117.644 28.5165C119.23 28.5165 120.549 27.9915 121.599 26.9415C122.649 25.8682 123.174 24.5265 123.174 22.9165C123.174 21.3065 122.649 19.9765 121.599 18.9265C120.549 17.8532 119.23 17.3165 117.644 17.3165C116.057 17.3165 114.739 17.8532 113.689 18.9265C112.639 19.9765 112.114 21.3065 112.114 22.9165C112.114 24.5265 112.639 25.8682 113.689 26.9415Z" fill="white"/>
<path d="M140.564 13.7115C142.571 13.7115 144.193 14.3532 145.429 15.6365C146.666 16.9198 147.284 18.6815 147.284 20.9215V31.6665H143.504V21.3065C143.504 19.9998 143.154 18.9965 142.454 18.2965C141.754 17.5965 140.798 17.2465 139.584 17.2465C138.254 17.2465 137.181 17.6665 136.364 18.5065C135.548 19.3232 135.139 20.5832 135.139 22.2865V31.6665H131.359V14.1665H135.139V16.4065C136.283 14.6098 138.091 13.7115 140.564 13.7115Z" fill="white"/>
</g>
<defs>
<clipPath id="clip0_98_549">
<rect width="147" height="40" fill="white" transform="translate(0.674805)"/>
</clipPath>
<clipPath id="clip1_98_549">
<rect width="40" height="40" fill="white" transform="matrix(-1 0 0 1 40.6748 0)"/>
</clipPath>
</defs>
</svg>
