<svg width="40" height="40" viewBox="0 0 40 40" fill="none" xmlns="http://www.w3.org/2000/svg">
<g clip-path="url(#clip0_98_481)">
<rect width="40" height="40" transform="matrix(-1 0 0 1 40 0)" fill="#1E1E1E"/>
<path d="M0 5.33334C0 3.46649 0 2.53307 0.363312 1.82003C0.68289 1.19282 1.19282 0.68289 1.82003 0.363312C2.53307 0 3.46649 0 5.33333 0H34.6667C36.5335 0 37.4669 0 38.18 0.363312C38.8072 0.68289 39.3171 1.19282 39.6367 1.82003C40 2.53307 40 3.46649 40 5.33333V34.6667C40 36.5335 40 37.4669 39.6367 38.18C39.3171 38.8072 38.8072 39.3171 38.18 39.6367C37.4669 40 36.5335 40 34.6667 40H5.33334C3.46649 40 2.53307 40 1.82003 39.6367C1.19282 39.3171 0.68289 38.8072 0.363312 38.18C0 37.4669 0 36.5335 0 34.6667V5.33334Z" fill="#6100FF"/>
<path d="M31.6667 10L15.747 30H10V10H15.747V21.2859L24.7333 10L31.6667 10Z" fill="white"/>
<path d="M30.8 30H23.7939L19.7673 25.0027H26.7796L30.8 30Z" fill="white"/>
</g>
<defs>
<clipPath id="clip0_98_481">
<rect width="40" height="40" fill="white" transform="matrix(-1 0 0 1 40 0)"/>
</clipPath>
</defs>
</svg>
